<mxfile host="app.diagrams.net" modified="2023-07-18T02:04:09.913Z" agent="Mozilla/5.0 (Windows NT 10.0; Win64; x64) AppleWebKit/537.36 (KHTML, like Gecko) Chrome/114.0.0.0 Safari/537.36 Edg/114.0.1823.79" etag="vhCzX4QCPW4yu2U9fYz3" version="21.6.2" type="github">
  <diagram id="C5RBs43oDa-KdzZeNtuy" name="Page-1">
    <mxGraphModel dx="2382" dy="940" grid="0" gridSize="10" guides="1" tooltips="1" connect="1" arrows="1" fold="1" page="1" pageScale="1" pageWidth="827" pageHeight="1169" math="0" shadow="0">
      <root>
        <mxCell id="WIyWlLk6GJQsqaUBKTNV-0" />
        <mxCell id="WIyWlLk6GJQsqaUBKTNV-1" parent="WIyWlLk6GJQsqaUBKTNV-0" />
        <mxCell id="mpbQQqpTLw0MS5XC4i5e-0" style="edgeStyle=orthogonalEdgeStyle;rounded=0;orthogonalLoop=1;jettySize=auto;html=1;exitX=0.5;exitY=1;exitDx=0;exitDy=0;entryX=0.5;entryY=0;entryDx=0;entryDy=0;" edge="1" parent="WIyWlLk6GJQsqaUBKTNV-1" source="mpbQQqpTLw0MS5XC4i5e-1" target="mpbQQqpTLw0MS5XC4i5e-6">
          <mxGeometry relative="1" as="geometry" />
        </mxCell>
        <mxCell id="mpbQQqpTLw0MS5XC4i5e-1" value="申请人" style="rounded=1;whiteSpace=wrap;html=1;fontSize=12;glass=0;strokeWidth=1;shadow=0;" vertex="1" parent="WIyWlLk6GJQsqaUBKTNV-1">
          <mxGeometry x="220" y="120" width="120" height="40" as="geometry" />
        </mxCell>
        <mxCell id="mpbQQqpTLw0MS5XC4i5e-2" style="edgeStyle=orthogonalEdgeStyle;rounded=0;orthogonalLoop=1;jettySize=auto;html=1;exitX=0.5;exitY=1;exitDx=0;exitDy=0;entryX=0.5;entryY=0;entryDx=0;entryDy=0;" edge="1" parent="WIyWlLk6GJQsqaUBKTNV-1" source="mpbQQqpTLw0MS5XC4i5e-3" target="mpbQQqpTLw0MS5XC4i5e-1">
          <mxGeometry relative="1" as="geometry" />
        </mxCell>
        <mxCell id="mpbQQqpTLw0MS5XC4i5e-3" value="开始" style="ellipse;whiteSpace=wrap;html=1;aspect=fixed;fillColor=#dae8fc;strokeColor=#6c8ebf;" vertex="1" parent="WIyWlLk6GJQsqaUBKTNV-1">
          <mxGeometry x="255" y="40" width="50" height="50" as="geometry" />
        </mxCell>
        <mxCell id="mpbQQqpTLw0MS5XC4i5e-4" value="结束" style="ellipse;whiteSpace=wrap;html=1;aspect=fixed;fillColor=#d5e8d4;strokeColor=#82b366;" vertex="1" parent="WIyWlLk6GJQsqaUBKTNV-1">
          <mxGeometry x="255" y="820" width="50" height="50" as="geometry" />
        </mxCell>
        <mxCell id="mpbQQqpTLw0MS5XC4i5e-5" style="edgeStyle=orthogonalEdgeStyle;rounded=0;orthogonalLoop=1;jettySize=auto;html=1;exitX=0.5;exitY=1;exitDx=0;exitDy=0;entryX=0.5;entryY=0;entryDx=0;entryDy=0;" edge="1" parent="WIyWlLk6GJQsqaUBKTNV-1" source="mpbQQqpTLw0MS5XC4i5e-6" target="mpbQQqpTLw0MS5XC4i5e-13">
          <mxGeometry relative="1" as="geometry" />
        </mxCell>
        <mxCell id="mpbQQqpTLw0MS5XC4i5e-6" value="直属领导" style="rounded=1;whiteSpace=wrap;html=1;fontSize=12;glass=0;strokeWidth=1;shadow=0;" vertex="1" parent="WIyWlLk6GJQsqaUBKTNV-1">
          <mxGeometry x="220" y="180" width="120" height="40" as="geometry" />
        </mxCell>
        <mxCell id="mpbQQqpTLw0MS5XC4i5e-7" style="edgeStyle=orthogonalEdgeStyle;rounded=0;orthogonalLoop=1;jettySize=auto;html=1;exitX=0.5;exitY=1;exitDx=0;exitDy=0;entryX=0.5;entryY=0;entryDx=0;entryDy=0;" edge="1" parent="WIyWlLk6GJQsqaUBKTNV-1" source="mpbQQqpTLw0MS5XC4i5e-8" target="mpbQQqpTLw0MS5XC4i5e-11">
          <mxGeometry relative="1" as="geometry" />
        </mxCell>
        <mxCell id="mpbQQqpTLw0MS5XC4i5e-8" value="&lt;p class=&quot;MsoNormal&quot;&gt;事业部总监&lt;/p&gt;" style="rounded=1;whiteSpace=wrap;html=1;fontSize=12;glass=0;strokeWidth=1;shadow=0;" vertex="1" parent="WIyWlLk6GJQsqaUBKTNV-1">
          <mxGeometry x="220" y="360" width="120" height="40" as="geometry" />
        </mxCell>
        <mxCell id="mpbQQqpTLw0MS5XC4i5e-23" style="edgeStyle=orthogonalEdgeStyle;rounded=0;orthogonalLoop=1;jettySize=auto;html=1;exitX=0.5;exitY=1;exitDx=0;exitDy=0;entryX=0.5;entryY=0;entryDx=0;entryDy=0;" edge="1" parent="WIyWlLk6GJQsqaUBKTNV-1" source="mpbQQqpTLw0MS5XC4i5e-11" target="mpbQQqpTLw0MS5XC4i5e-18">
          <mxGeometry relative="1" as="geometry" />
        </mxCell>
        <mxCell id="mpbQQqpTLw0MS5XC4i5e-11" value="&lt;p class=&quot;MsoNormal&quot;&gt;检具工程师&lt;/p&gt;" style="rounded=1;whiteSpace=wrap;html=1;fontSize=12;glass=0;strokeWidth=1;shadow=0;" vertex="1" parent="WIyWlLk6GJQsqaUBKTNV-1">
          <mxGeometry x="220" y="430" width="120" height="40" as="geometry" />
        </mxCell>
        <mxCell id="mpbQQqpTLw0MS5XC4i5e-12" style="edgeStyle=orthogonalEdgeStyle;rounded=0;orthogonalLoop=1;jettySize=auto;html=1;exitX=0.5;exitY=1;exitDx=0;exitDy=0;entryX=0.5;entryY=0;entryDx=0;entryDy=0;" edge="1" parent="WIyWlLk6GJQsqaUBKTNV-1" source="mpbQQqpTLw0MS5XC4i5e-13" target="mpbQQqpTLw0MS5XC4i5e-15">
          <mxGeometry relative="1" as="geometry" />
        </mxCell>
        <mxCell id="mpbQQqpTLw0MS5XC4i5e-13" value="部门长" style="rounded=1;whiteSpace=wrap;html=1;fontSize=12;glass=0;strokeWidth=1;shadow=0;" vertex="1" parent="WIyWlLk6GJQsqaUBKTNV-1">
          <mxGeometry x="220" y="240" width="120" height="40" as="geometry" />
        </mxCell>
        <mxCell id="mpbQQqpTLw0MS5XC4i5e-14" style="edgeStyle=orthogonalEdgeStyle;rounded=0;orthogonalLoop=1;jettySize=auto;html=1;exitX=0.5;exitY=1;exitDx=0;exitDy=0;" edge="1" parent="WIyWlLk6GJQsqaUBKTNV-1" source="mpbQQqpTLw0MS5XC4i5e-15" target="mpbQQqpTLw0MS5XC4i5e-8">
          <mxGeometry relative="1" as="geometry" />
        </mxCell>
        <mxCell id="mpbQQqpTLw0MS5XC4i5e-15" value="&lt;p class=&quot;MsoNormal&quot;&gt;事业部项目经理&lt;/p&gt;" style="rounded=1;whiteSpace=wrap;html=1;fontSize=12;glass=0;strokeWidth=1;shadow=0;" vertex="1" parent="WIyWlLk6GJQsqaUBKTNV-1">
          <mxGeometry x="220" y="300" width="120" height="40" as="geometry" />
        </mxCell>
        <mxCell id="mpbQQqpTLw0MS5XC4i5e-17" value="&lt;p class=&quot;MsoNormal&quot;&gt;采购报价&lt;/p&gt;" style="rounded=1;whiteSpace=wrap;html=1;fontSize=12;glass=0;strokeWidth=1;shadow=0;" vertex="1" parent="WIyWlLk6GJQsqaUBKTNV-1">
          <mxGeometry x="220" y="500" width="120" height="40" as="geometry" />
        </mxCell>
        <mxCell id="mpbQQqpTLw0MS5XC4i5e-24" style="edgeStyle=orthogonalEdgeStyle;rounded=0;orthogonalLoop=1;jettySize=auto;html=1;exitX=0.5;exitY=1;exitDx=0;exitDy=0;entryX=0.5;entryY=0;entryDx=0;entryDy=0;" edge="1" parent="WIyWlLk6GJQsqaUBKTNV-1" source="mpbQQqpTLw0MS5XC4i5e-18" target="mpbQQqpTLw0MS5XC4i5e-19">
          <mxGeometry relative="1" as="geometry" />
        </mxCell>
        <mxCell id="mpbQQqpTLw0MS5XC4i5e-18" value="&lt;p class=&quot;MsoNormal&quot;&gt;采购报价&lt;/p&gt;" style="rounded=1;whiteSpace=wrap;html=1;fontSize=12;glass=0;strokeWidth=1;shadow=0;" vertex="1" parent="WIyWlLk6GJQsqaUBKTNV-1">
          <mxGeometry x="220" y="500" width="120" height="40" as="geometry" />
        </mxCell>
        <mxCell id="mpbQQqpTLw0MS5XC4i5e-25" style="edgeStyle=orthogonalEdgeStyle;rounded=0;orthogonalLoop=1;jettySize=auto;html=1;exitX=0.5;exitY=1;exitDx=0;exitDy=0;entryX=0.5;entryY=0;entryDx=0;entryDy=0;" edge="1" parent="WIyWlLk6GJQsqaUBKTNV-1" source="mpbQQqpTLw0MS5XC4i5e-19" target="mpbQQqpTLw0MS5XC4i5e-20">
          <mxGeometry relative="1" as="geometry" />
        </mxCell>
        <mxCell id="mpbQQqpTLw0MS5XC4i5e-19" value="&lt;p class=&quot;MsoNormal&quot;&gt;采购报价直属领导&lt;/p&gt;" style="rounded=1;whiteSpace=wrap;html=1;fontSize=12;glass=0;strokeWidth=1;shadow=0;" vertex="1" parent="WIyWlLk6GJQsqaUBKTNV-1">
          <mxGeometry x="220" y="565" width="120" height="40" as="geometry" />
        </mxCell>
        <mxCell id="mpbQQqpTLw0MS5XC4i5e-26" style="edgeStyle=orthogonalEdgeStyle;rounded=0;orthogonalLoop=1;jettySize=auto;html=1;exitX=0.5;exitY=1;exitDx=0;exitDy=0;entryX=0.5;entryY=0;entryDx=0;entryDy=0;" edge="1" parent="WIyWlLk6GJQsqaUBKTNV-1" source="mpbQQqpTLw0MS5XC4i5e-20" target="mpbQQqpTLw0MS5XC4i5e-21">
          <mxGeometry relative="1" as="geometry" />
        </mxCell>
        <mxCell id="mpbQQqpTLw0MS5XC4i5e-20" value="&lt;p class=&quot;MsoNormal&quot;&gt;事业部总监确认&lt;br&gt;&lt;/p&gt;" style="rounded=1;whiteSpace=wrap;html=1;fontSize=12;glass=0;strokeWidth=1;shadow=0;" vertex="1" parent="WIyWlLk6GJQsqaUBKTNV-1">
          <mxGeometry x="220" y="630" width="120" height="40" as="geometry" />
        </mxCell>
        <mxCell id="mpbQQqpTLw0MS5XC4i5e-27" style="edgeStyle=orthogonalEdgeStyle;rounded=0;orthogonalLoop=1;jettySize=auto;html=1;exitX=0.5;exitY=1;exitDx=0;exitDy=0;entryX=0.5;entryY=0;entryDx=0;entryDy=0;" edge="1" parent="WIyWlLk6GJQsqaUBKTNV-1" source="mpbQQqpTLw0MS5XC4i5e-21" target="mpbQQqpTLw0MS5XC4i5e-22">
          <mxGeometry relative="1" as="geometry" />
        </mxCell>
        <mxCell id="mpbQQqpTLw0MS5XC4i5e-21" value="&lt;p class=&quot;MsoNormal&quot;&gt;检具工程师确认&lt;/p&gt;" style="rounded=1;whiteSpace=wrap;html=1;fontSize=12;glass=0;strokeWidth=1;shadow=0;" vertex="1" parent="WIyWlLk6GJQsqaUBKTNV-1">
          <mxGeometry x="220" y="690" width="120" height="40" as="geometry" />
        </mxCell>
        <mxCell id="mpbQQqpTLw0MS5XC4i5e-28" style="edgeStyle=orthogonalEdgeStyle;rounded=0;orthogonalLoop=1;jettySize=auto;html=1;exitX=0.5;exitY=1;exitDx=0;exitDy=0;entryX=0.5;entryY=0;entryDx=0;entryDy=0;" edge="1" parent="WIyWlLk6GJQsqaUBKTNV-1" source="mpbQQqpTLw0MS5XC4i5e-22" target="mpbQQqpTLw0MS5XC4i5e-4">
          <mxGeometry relative="1" as="geometry" />
        </mxCell>
        <mxCell id="mpbQQqpTLw0MS5XC4i5e-22" value="&lt;p class=&quot;MsoNormal&quot;&gt;事业部项目经理确认&lt;/p&gt;" style="rounded=1;whiteSpace=wrap;html=1;fontSize=12;glass=0;strokeWidth=1;shadow=0;" vertex="1" parent="WIyWlLk6GJQsqaUBKTNV-1">
          <mxGeometry x="220" y="750" width="120" height="40" as="geometry" />
        </mxCell>
      </root>
    </mxGraphModel>
  </diagram>
</mxfile>
